<svg width="24" height="27" viewBox="0 0 24 27" fill="none" xmlns="http://www.w3.org/2000/svg">
    <path fill-rule="evenodd" clip-rule="evenodd" d="M0 8.36317L3.17901 10.5788L0 12.9627L3.45579 15.3712L0 17.9627L11.9996 26.3259L23.9992 17.9627L20.3326 15.5182L23.9992 12.9627L20.6262 10.714L23.9992 8.36317L11.9996 0L0 8.36317ZM5.26982 16.6355L11.9996 21.3259L18.7297 16.6353L20.5014 17.9627L11.9996 23.8881L3.49782 17.9627L5.26982 16.6355ZM3.49782 12.9627L4.99287 11.843L11.9996 16.7263L19.0066 11.8428L20.5014 12.9627L11.9996 18.8881L3.49782 12.9627ZM3.49782 8.36317L11.9996 14.2885L20.5014 8.36317L11.9996 2.43782L3.49782 8.36317Z" fill="#082235"/>
</svg>
