<svg width="40" height="40" viewBox="0 0 40 40" fill="none" xmlns="http://www.w3.org/2000/svg">
     <rect x="1" y="1" width="38" height="38" rx="3" fill="none" stroke="#C8C8C8" stroke-width="2"/>
    <path fill-rule="evenodd" 
        clip-rule="evenodd" 
        d="M23.4734 24.8875C21.8415 26.2086 19.7632 27 17.5 27C12.2533 27 8 22.7467 8 17.5C8 12.2533 12.2533 8 17.5 8C22.7467 8 27 12.2533 27 17.5C27 19.7631 26.2087 21.8414 24.8876 23.4733L32.118 30.7037L30.7038 32.118L23.4734 24.8875ZM25 17.5C25 21.6421 21.6421 25 17.5 25C13.3579 25 10 21.6421 10 17.5C10 13.3579 13.3579 10 17.5 10C21.6421 10 25 13.3579 25 17.5Z" 
        fill="#082235"/>
</svg>
